<?xml version="1.0" encoding="UTF-8"?>
<svg id="_레이어_1" data-name=" 레이어 1" xmlns="http://www.w3.org/2000/svg" viewBox="0 0 236.62 115.96">
  <defs>
    <style>
      .cls-1 {
        fill: #c8e7e9;
      }

      .cls-2 {
        fill: #fff;
      }

      .cls-3 {
        fill: #003d94;
      }

      .cls-4 {
        opacity: .9;
      }
    </style>
  </defs>
  <g class="cls-4">
    <g>
      <path class="cls-1" d="M172.71,112.3v-4.3c0-2.41,1.89-4.3,4.3-4.3s4.3,1.89,4.3,4.3v4.3h49.93V3.66h-49.93v4.3c0,2.41-1.89,4.3-4.3,4.3s-4.3-1.89-4.3-4.3V3.66h-49.93v108.64h49.93Z"/>
      <g>
        <path class="cls-3" d="M145.51,25.18c0-2.93-2.58-5.34-6.54-5.34s-6.54,2.41-6.54,5.34,2.58,5.34,6.54,5.34,6.54-2.41,6.54-5.34ZM135.87,25.18c0-1.72,1.38-3.1,3.1-3.1s3.1,1.38,3.1,3.1-1.38,3.1-3.1,3.1-3.1-1.38-3.1-3.1ZM161.35,28.8c1.55,2.58,4.48,3.96,7.23,4.48v-2.07c-3.44-.86-5.51-3.27-5.51-7.75v-2.93h-3.44v2.93c0,4.48-2.07,6.89-5.51,7.75v2.07c2.75-.52,5.68-1.72,7.23-4.48ZM208.01,29.49c3.96,0,6.54-2.07,6.54-4.82s-2.58-4.82-6.54-4.82-6.54,2.07-6.54,4.82,2.58,4.82,6.54,4.82ZM208.01,22.08c2.07,0,3.27,1.38,3.27,2.58s-1.03,2.58-3.27,2.58-3.27-1.38-3.27-2.58,1.03-2.58,3.27-2.58ZM151.71,20.19h-3.44v10.16h3.44v-10.16ZM139.83,40.85c-.86-.17-1.38-.69-1.38-1.21h0v-.86h13.26v-4.82c0-.86-.69-1.72-1.72-1.72h-14.98v2.07h13.26v2.24h-13.26v3.1c0,1.21.52,2.24,1.21,2.75,1.03.69,3.27,1.21,8.26,1.21s5.68-.34,7.4-.86v-2.24c-1.89.52-4.65.86-7.4.86-2.07,0-3.79,0-4.65-.34v-.17ZM162.38,40.85c-.86-.17-1.38-.69-1.38-1.21h0v-3.96h-3.44v3.96c0,1.21.52,2.24,1.21,2.75,1.03.69,3.27,1.21,8.26,1.21s5.68-.34,7.4-.86v-2.24c-1.89.52-4.65.86-7.4.86-2.07,0-3.79,0-4.65-.34v-.17ZM190.45,33.45c-4.65,0-7.92,2.41-7.92,5.34s3.1,5.34,7.92,5.34,7.92-2.41,7.92-5.34-3.27-5.34-7.92-5.34ZM190.45,42.06c-2.75,0-4.48-1.38-4.48-3.1s1.72-3.1,4.48-3.1,4.48,1.38,4.48,3.1-1.72,3.1-4.48,3.1ZM213.17,41.2c-2.07,0-3.79,0-4.65-.34-.86-.17-1.38-.69-1.38-1.21h0v-2.58h-3.44v2.58c0,1.21.52,2.24,1.21,2.75,1.03.69,3.27,1.21,8.26,1.21s5.68-.34,7.4-.86v-2.24c-1.89.52-4.65.86-7.4.86v-.17ZM206.63,36.03h3.44v-3.27h7.06v1.03h-3.62v2.07h3.62v1.72h3.44v-17.22h-3.44v10.33h-16.01v2.07h5.51s0,3.27,0,3.27ZM189.41,32.07c1.21-.34,1.72-1.21,1.72-2.24h3.44v3.27h3.44v-12.74h-3.44v2.93h-3.44v-2.58h-3.44v3.79h-5.51v-3.79h-3.44v9.3c0,1.03.52,1.89,1.72,2.24,1.21.34,2.75.52,4.3.52s3.1-.17,4.3-.52l.34-.17ZM191.31,25.18h3.44v2.41h-3.44v-2.41ZM182.35,29.66v-3.1h5.51v3.1c0,.52-.17.69-.69.86h-4.13c-.52,0-.69-.34-.69-.86h0ZM174.26,20.19h-3.44v16.53h3.44v-8.61h3.1v-2.07h-3.1v-5.85Z"/>
        <path class="cls-3" d="M143.1,93.71c-.17,0-.34-.17-.69-.34-.34,0-.52-.17-.69-.34,0,0-.17,0-.34-.17v-.17c0-.34.17-.34.69-.34h.69c.17,0,.34,0,.69.17l.34-.86c-.17,0-.52-.17-.69-.17h-.86c-.52,0-1.03,0-1.21.34-.34.17-.52.52-.52.86v.69s.17.34.52.34c.17,0,.52.17.69.34.34,0,.52.17.69.34,0,0,.17,0,.34.17v.17s0,.34-.17.34h-1.38c-.34,0-.52,0-.69-.34v.86c.17,0,.52,0,.69.17h.86c.69,0,1.03,0,1.38-.34.34-.17.52-.52.52-1.03v-.69s-.17-.34-.52-.34l-.34.34ZM161.52,92.5h-2.58v-2.41h-1.03v6.03h1.03v-2.58h2.58v2.58h1.03v-6.03h-1.03v2.41ZM138.11,96.12h1.03v-6.37h-1.03v6.37ZM152.23,91.47h-.86c-.17,0-.52.34-.52.52h0v-.52h-1.03v4.48h1.03v-2.24c0-.52,0-.86.17-1.21,0-.34.52-.34.86-.34s.52,0,.69.17c0,0,.17.34.17.69v2.75h1.03v-2.93c0-.52,0-1.03-.52-1.21-.34-.34-.69-.34-1.21-.34l.17.17ZM146.54,91.47h-.86c-.34,0-.52,0-.69.34l.34.69c.17,0,.34-.17.69-.17h.69c.34,0,.52,0,.52.17,0,0,.17.34.17.69h0c0,.17-.86.17-.86.17-.69,0-1.21,0-1.55.34-.34.17-.52.52-.52,1.03s0,.86.34,1.03.69.34,1.03.34h.86c.17,0,.34-.34.69-.52h0v.69h1.03v-3.1c0-.52,0-.86-.52-1.21-.34-.17-.69-.34-1.38-.34v-.17ZM147.4,94.39c0,.34,0,.69-.34.86-.17.17-.52.34-.86.34h-.52s-.17-.17-.17-.52,0-.52.34-.52c.17,0,.52-.17,1.03-.17h.52v.34-.34ZM134.49,90.78l.69.34v4.13l-.69.34v.69h2.58v-.69l-.69-.34v-4.13l.69-.34v-.69h-2.58v.69ZM183.22,95.26h-.52v-2.93h1.21v-.86h-1.21v-1.03h-.69l-.34,1.03-.69.34v.52h.69v2.41c0,.34,0,.69.17.86,0,.17.34.34.52.52h1.72v-.86h-.86ZM186.83,91.47h-.86c-.34,0-.52,0-.69.34l.34.69c.17,0,.34-.17.69-.17h.69c.34,0,.52,0,.52.17,0,0,.17.34.17.69h0c0,.17-.86.17-.86.17-.69,0-1.21,0-1.55.34-.34.17-.52.52-.52,1.03s0,.86.34,1.03.69.34,1.03.34h.86c.17,0,.34-.34.69-.52h0v.69h1.03v-3.1c0-.52,0-.86-.52-1.21-.34-.17-.69-.34-1.38-.34v-.17ZM187.52,94.39c0,.34,0,.69-.34.86-.17.17-.52.34-.86.34h-.52s-.17-.17-.17-.52,0-.52.34-.52c.17,0,.52-.17,1.03-.17h.52v.34-.34ZM167.2,91.64c-.34-.17-.69-.34-1.03-.34-.69,0-1.21.17-1.55.69-.34.34-.52,1.03-.52,1.72s0,.86.34,1.21c.17.34.52.69.69.86.34.17.69.34,1.03.34.69,0,1.21-.17,1.55-.69.34-.34.52-1.03.52-1.72s0-.86-.34-1.21c-.17-.34-.52-.69-.69-.86ZM166.86,94.91c-.17.34-.52.34-.86.34s-.69,0-.86-.34c0-.34-.17-.69-.17-1.03s0-.86.17-1.03c0-.17.52-.34.86-.34s.69,0,.86.34c.17.17.34.69.34,1.03s0,.86-.34,1.03ZM190.1,89.75v6.37h1.03v-6.37h-1.03ZM179.94,89.92h-.69v1.03h.69s.17-.17.17-.52,0-.34-.17-.52ZM171.85,93.71c-.17,0-.34-.17-.69-.34-.34,0-.52-.17-.69-.34s-.17,0-.34-.17v-.17c0-.34.17-.34.69-.34h.69c.17,0,.34,0,.69.17l.34-.86c-.17,0-.52-.17-.69-.17h-.86c-.52,0-1.03,0-1.21.34-.34.17-.52.52-.52.86v.69s.17.34.52.34c.17,0,.52.17.69.34.34,0,.52.17.69.34,0,0,.17,0,.34.17v.17s0,.34-.17.34h-1.38c-.34,0-.52,0-.69-.34v.86c.17,0,.52,0,.69.17h.86c.69,0,1.03,0,1.38-.34.34-.17.52-.52.52-1.03v-.69s-.17-.34-.52-.34l-.34.34ZM178.91,96.12h1.03v-4.48h-1.03v4.48ZM175.98,91.47c-.34,0-.69,0-.86.17-.17,0-.34.34-.52.52h0v-.69h-1.03v6.54h1.03v-2.58h0s.34.34.52.34.52.17.86.17c.52,0,1.03-.17,1.38-.52s.52-1.03.52-1.72,0-1.38-.52-1.72c-.34-.34-.69-.52-1.21-.52h-.17ZM176.5,94.91c0,.34-.34.34-.69.34s-.69,0-.86-.34c0-.34-.17-.69-.17-1.03h0c0-.52,0-.86.17-1.21,0-.17.34-.34.86-.34s.52,0,.69.34c0,.17.17.69.17,1.03s0,.86-.17,1.03v.17Z"/>
      </g>
    </g>
    <g>
      <path class="cls-3" d="M114,62.37h-4.3c-2.41,0-4.3-1.89-4.3-4.3s1.89-4.3,4.3-4.3h4.3V3.66H5.37v49.93h4.3c2.41,0,4.3,1.89,4.3,4.3s-1.89,4.3-4.3,4.3h-4.3v49.93h108.64v-49.93.17Z"/>
      <g>
        <path class="cls-2" d="M53.92,26.39h2.93v6.03h2.24v-11.02h-2.24v3.62h-2.75v-2.07c0-.69-.52-1.03-1.03-1.03h-6.37v1.38h5.16v1.03c0,1.38-.52,2.58-1.38,3.44s-2.24,1.21-3.96,1.38v1.38c1.55,0,2.93-.17,4.13-.69,1.55-.69,2.58-1.72,3.1-3.1l.17-.34ZM36.36,35.17c-.52,0-.86-.52-.86-.86h0v-2.58h-2.24v2.58c0,.86.34,1.38.86,1.89.69.52,2.07.69,5.51.69s3.79-.17,4.99-.52v-1.38c-1.21.34-3.1.52-4.99.52-1.38,0-2.58,0-3.1-.34h-.17ZM51.16,35.17c-.52,0-.86-.52-.86-.86h0v-2.58h-2.24v2.58c0,.86.34,1.38.86,1.89.69.52,2.07.69,5.51.69s3.79-.17,4.99-.52v-1.38c-1.21.34-3.1.52-4.99.52-1.38,0-2.58,0-3.1-.34h-.17ZM44.28,21.4h-2.24v11.02h2.24v-11.02ZM39.8,28.63v-6.89h-8.09v6.89c0,.69.52,1.03,1.03,1.03h6.03c.69,0,1.03-.52,1.03-1.03ZM37.56,28.28h-3.62v-4.99h3.62v4.99ZM28.61,24.84v-1.89c0-.69-.52-1.03-1.03-1.03h-10.33v1.38h9.12v1.72c0,.86,0,1.89-.34,2.41h-10.33v1.38h6.2v2.24h-4.65v1.38h9.12v4.3h2.24v-4.65c0-.69-.52-1.03-1.03-1.03h-3.27v-2.24h5.85v-1.38h-1.89c.34-.52.52-1.55.52-2.41l-.17-.17ZM92.31,34.82c0,.52,0,1.21,1.38,1.55,1.21.34,2.75.34,4.13.34s2.93,0,4.13-.34c1.21-.34,1.21-1.03,1.38-1.55v-3.79h-11.02s0,3.79,0,3.79ZM94.55,34.48v-1.89h6.37v1.89h0c0,.34-.17.69-.86.86h-4.82c-.69,0-.86-.52-.86-.86s0,0,0,0h.17ZM83.88,31.04c1.03,0,1.89-.17,2.93-.34.86-.17,1.21-.69,1.21-1.55v-7.4h-2.24v2.93h-6.2v-2.93h-2.24v7.4c0,.69.52,1.38,1.21,1.55,1.03.17,1.89.34,2.93.34v3.27h-6.03v1.38h14.29v-1.38h-6.03v-3.27h.17ZM80.43,29.49h0c-.52,0-.69-.52-.69-.86v-2.58h6.2v2.58c0,.34-.17.69-.69.86h0c-.69,0-1.55.17-2.41.17s-1.72,0-2.41-.17ZM100.92,21.4v4.13h-1.72c-.17-.69-.52-1.21-1.03-1.72h1.38v-1.38h-3.27v-1.38h-2.24v1.38h-3.27v1.38h1.38c-.69.69-1.21,1.55-1.21,2.58,0,2.07,1.72,3.62,4.3,3.62s3.96-1.38,4.3-3.1h1.72v2.93h2.24v-8.44h-2.58ZM95.07,28.45c-1.21,0-2.07-1.03-2.07-2.07s.86-2.07,2.07-2.07,2.07,1.03,2.07,2.07-.86,2.07-2.07,2.07ZM73.55,21.4h-2.24v8.61h2.24v-4.3h2.07v-1.38h-2.07v-2.93ZM69.07,24.32v-1.38c0-.69-.52-1.03-1.03-1.03h-6.37v1.38h5.16v.86c0,1.38-.52,2.58-1.38,3.27-.86.69-2.24,1.21-3.96,1.21v1.38c1.55,0,3.27-.17,4.48-.86,1.72-.86,3.1-2.24,3.1-4.82ZM68.55,30.35c-3.1,0-5.34,1.55-5.34,3.62s2.07,3.62,5.34,3.62,5.34-1.55,5.34-3.62-2.07-3.62-5.34-3.62ZM68.55,35.86c-1.89,0-3.1-.86-3.1-2.07s1.21-2.07,3.1-2.07,3.1.86,3.1,2.07-1.21,2.07-3.1,2.07Z"/>
        <g>
          <path class="cls-2" d="M42.73,79.42h-.86c-.17,0-.52.34-.52.52h0v-.52h-1.03v4.48h1.03v-2.24c0-.52,0-.86.17-1.21,0-.34.52-.34.86-.34s.52,0,.69.17c0,0,.17.34.17.69v2.75h1.03v-2.93c0-.52,0-1.03-.52-1.21-.34-.34-.69-.34-1.21-.34l.17.17ZM30.85,83.38h-.52v-2.93h1.21v-.86h-1.21v-1.03h-.69l-.34,1.03-.69.34v.52h.69v2.41c0,.34,0,.69.17.86,0,.17.34.34.52.52h1.72v-.86h-.86ZM38.08,79.76c-.34-.17-.69-.34-1.03-.34-.69,0-1.21.17-1.55.69-.34.34-.52,1.03-.52,1.72s0,.86.34,1.21c.17.34.52.69.69.86.34.17.69.34,1.03.34.69,0,1.21-.17,1.55-.69.34-.34.52-1.03.52-1.72s0-.86-.34-1.21c-.17-.34-.52-.69-.69-.86ZM37.73,83.03c-.17.34-.52.34-.86.34s-.69,0-.86-.34c0-.34-.17-.69-.17-1.03s0-.86.17-1.03c0-.17.52-.34.86-.34s.69,0,.86.34c.17.17.34.69.34,1.03s0,.86-.34,1.03ZM25.86,79.42h-.86c-.34,0-.52,0-.69.34l.34.69c.17,0,.34-.17.69-.17h.69c.34,0,.52,0,.52.17,0,0,.17.34.17.69h0c0,.17-.86.17-.86.17-.69,0-1.21,0-1.55.34-.34.17-.52.52-.52,1.03s0,.86.34,1.03.69.34,1.03.34h.86c.17,0,.34-.34.69-.52h0v.69h1.03v-3.1c0-.52,0-.86-.52-1.21-.34-.17-.69-.34-1.38-.34v-.17ZM26.54,82.34c0,.34,0,.69-.34.86-.17.17-.52.34-.86.34h-.52s-.17-.17-.17-.52,0-.52.34-.52c.17,0,.52-.17,1.03-.17h.52v.34-.34ZM33.43,77.87h-.69v1.03h.69s.17-.17.17-.52,0-.34-.17-.52ZM21.38,81.14v1.55h0l-2.75-4.65h-1.38v6.03h1.03v-4.82h0l2.75,4.65h1.38v-6.03h-1.03v3.27ZM32.57,84.06h1.03v-4.48h-1.03v4.48ZM47.72,79.42h-.86c-.34,0-.52,0-.69.34l.34.69c.17,0,.34-.17.69-.17h.69c.34,0,.52,0,.52.17,0,0,.17.34.17.69h0c0,.17-.86.17-.86.17-.69,0-1.21,0-1.55.34-.34.17-.52.52-.52,1.03s0,.86.34,1.03.69.34,1.03.34h.86c.17,0,.34-.34.69-.52h0v.69h1.03v-3.1c0-.52,0-.86-.52-1.21-.34-.17-.69-.34-1.38-.34v-.17ZM48.41,82.34c0,.34,0,.69-.34.86-.17.17-.52.34-.86.34h-.52s-.17-.17-.17-.52,0-.52.34-.52c.17,0,.52-.17,1.03-.17h.52v.34-.34ZM72.17,84.06h1.03v-6.37h-1.03v6.37ZM69.07,79.42h-.86c-.34,0-.52,0-.69.34l.34.69c.17,0,.34-.17.69-.17h.69c.34,0,.52,0,.52.17,0,0,.17.34.17.69h0c0,.17-.86.17-.86.17-.69,0-1.21,0-1.55.34-.34.17-.52.52-.52,1.03s0,.86.34,1.03.69.34,1.03.34h.86c.17,0,.34-.34.69-.52h0v.69h1.03v-3.1c0-.52,0-.86-.52-1.21-.34-.17-.69-.34-1.38-.34v-.17ZM69.76,82.34c0,.34,0,.69-.34.86-.17.17-.52.34-.86.34h-.52s-.17-.17-.17-.52,0-.52.34-.52c.17,0,.52-.17,1.03-.17h.52v.34-.34ZM81.98,79.93c-.34-.34-.69-.34-1.21-.34h-.86c-.17,0-.34.34-.52.52h0v-2.41h-1.03v6.37h1.03v-2.24c0-.52,0-.86.17-1.21,0-.34.52-.34.86-.34s.52,0,.69.17c0,0,.17.34.17.69v2.75h1.03v-2.93c0-.52,0-1.03-.52-1.21l.17.17ZM76.47,83.38h-.52v-2.93h1.21v-.86h-1.21v-1.03h-.69l-.34,1.03-.69.34v.52h.69v2.41c0,.34,0,.69.17.86,0,.17.34.34.52.52h1.72v-.86h-.86ZM50.82,84.06h1.03v-6.37h-1.03v6.37ZM59.6,80.62h-2.58v-2.41h-1.03v6.03h1.03v-2.58h2.58v2.58h1.03v-6.03h-1.03v2.41ZM64.08,79.42c-.69,0-1.21.17-1.55.69-.34.34-.52,1.03-.52,1.72s0,1.03.34,1.38c.17.34.52.52.86.69.34,0,.69.17,1.21.17h.86c.17,0,.52,0,.69-.17v-.86c-.17,0-.52.17-.69.17h-.86c-.34,0-.69,0-.86-.34s-.34-.52-.34-1.03h2.93v-.52c0-.69-.17-1.21-.52-1.55-.34-.34-.86-.52-1.38-.52l-.17.17ZM63.04,81.31c0-.34,0-.69.34-.86.17-.17.34-.34.69-.34s.52,0,.69.34c0,.17.17.52.17.69h-1.89v.17Z"/>
          <path class="cls-2" d="M47.03,91.47h-.86c-.17,0-.52.34-.52.52h0v-.52h-1.03v4.48h1.03v-2.24c0-.52,0-.86.17-1.21,0-.34.52-.34.86-.34s.52,0,.69.17c0,0,.17.34.17.69v2.75h1.03v-2.93c0-.52,0-1.03-.52-1.21-.34-.34-.69-.34-1.21-.34l.17.17ZM17.07,90.78l.69.34v4.13l-.69.34v.69h2.58v-.69l-.69-.34v-4.13l.69-.34v-.69h-2.58v.69ZM23.1,91.47h-.86c-.17,0-.52.34-.52.52h0v-.52h-1.03v4.48h1.03v-2.24c0-.52,0-.86.17-1.21,0-.34.52-.34.86-.34s.52,0,.69.17c0,0,.17.34.17.69v2.75h1.03v-2.93c0-.52,0-1.03-.52-1.21-.34-.34-.69-.34-1.21-.34l.17.17ZM33.43,93.71c0,.52,0,.86-.17,1.21,0,.34-.52.34-.86.34s-.52,0-.69-.17c0,0-.17-.34-.17-.69v-2.75h-1.03v2.93c0,.52,0,1.03.52,1.21.34.34.69.34,1.21.34h.86c.17,0,.52-.34.69-.52h0v.52h1.03v-4.48h-1.03v2.24l-.34-.17ZM41.35,91.47h-.86c-.34,0-.52,0-.69.34l.34.69c.17,0,.34-.17.69-.17h.69c.34,0,.52,0,.52.17,0,0,.17.34.17.69h0c0,.17-.86.17-.86.17-.69,0-1.21,0-1.55.34-.34.17-.52.52-.52,1.03s0,.86.34,1.03.69.34,1.03.34h.86c.17,0,.34-.34.69-.52h0v.69h1.03v-3.1c0-.52,0-.86-.52-1.21-.34-.17-.69-.34-1.38-.34v-.17ZM42.04,94.39c0,.34,0,.69-.34.86-.17.17-.52.34-.86.34h-.52s-.17-.17-.17-.52,0-.52.34-.52c.17,0,.52-.17,1.03-.17h.52v.34-.34ZM38.25,91.47c-.34,0-.52,0-.86.17-.17,0-.34.34-.52.69h0v-.86h-1.03v4.48h1.03v-2.41c0-.34,0-.52.17-.69,0-.17.34-.34.52-.34h.69c.34,0,0,0,.17,0h.17v-1.03h-.34ZM28.61,93.71c-.17,0-.34-.17-.69-.34-.34,0-.52-.17-.69-.34,0,0-.17,0-.34-.17v-.17c0-.34.17-.34.69-.34h.69c.17,0,.34,0,.69.17l.34-.86c-.17,0-.52-.17-.69-.17h-.86c-.52,0-1.03,0-1.21.34-.34.17-.52.52-.52.86v.69s.17.34.52.34c.17,0,.52.17.69.34.34,0,.52.17.69.34,0,0,.17,0,.34.17v.17s0,.34-.17.34h-1.38c-.34,0-.52,0-.69-.34v.86c.17,0,.52,0,.69.17h.86c.69,0,1.03,0,1.38-.34.34-.17.52-.52.52-1.03v-.69s-.17-.34-.52-.34l-.34.34ZM52.02,92.33h1.03l.34-.86s-.34,0-.52-.17h-.69c-.34,0-.86,0-1.21.17-.34,0-.52.34-.69.69s-.34.86-.34,1.38c0,.86.17,1.38.52,1.72.34.34.86.52,1.55.52h.69c.17,0,.34,0,.52-.17v-.86c-.17,0-.34.17-.52.17h-.69c-.34,0-.69,0-.86-.34-.17-.17-.34-.69-.34-1.03,0-1.03.34-1.55,1.03-1.55l.17.34ZM80.78,89.92h-.69v1.03h.69s.17-.17.17-.52,0-.34-.17-.52ZM56.16,91.47c-.69,0-1.21.17-1.55.69-.34.34-.52,1.03-.52,1.72s0,1.03.34,1.38c.17.34.52.52.86.69.34,0,.69.17,1.21.17h.86c.17,0,.52,0,.69-.17v-.86c-.17,0-.52.17-.69.17h-.86c-.34,0-.69,0-.86-.34-.17-.17-.34-.52-.34-1.03h2.93v-.52c0-.69-.17-1.21-.52-1.55-.34-.34-.86-.52-1.38-.52l-.17.17ZM55.3,93.36c0-.34,0-.69.34-.86.17-.17.34-.34.69-.34s.52,0,.69.34c0,.17.17.52.17.69h-1.89v.17ZM90.59,93.53c0-.69-.17-1.21-.52-1.55-.34-.34-.86-.52-1.38-.52s-1.21.17-1.55.69c-.34.34-.52,1.03-.52,1.72s0,1.03.34,1.38c.17.34.52.52.86.69.34,0,.69.17,1.21.17h.86c.17,0,.52,0,.69-.17v-.86c-.17,0-.52.17-.69.17h-.86c-.34,0-.69,0-.86-.34-.17-.17-.34-.52-.34-1.03h2.93v-.52l-.17.17ZM87.66,93.36c0-.34,0-.69.34-.86.17-.17.34-.34.69-.34s.52,0,.69.34c0,.17.17.52.17.69h-1.89v.17ZM79.92,96.12h1.03v-4.48h-1.03v4.48ZM84.39,92.33h1.03l.34-.86s-.34,0-.52-.17h-.69c-.34,0-.86,0-1.21.17-.34,0-.52.34-.86.69-.17.34-.34.86-.34,1.38,0,.86.17,1.38.52,1.72.34.34.86.52,1.55.52h.69c.17,0,.34,0,.52-.17v-.86c-.17,0-.34.17-.52.17h-.69c-.34,0-.69,0-.86-.34-.17-.17-.34-.69-.34-1.03,0-1.03.34-1.55,1.03-1.55l.34.34ZM68.21,91.47c-.69,0-1.21.17-1.55.69-.34.34-.52,1.03-.52,1.72s0,1.03.34,1.38c.17.34.52.52.86.69.34,0,.69.17,1.21.17h.86c.17,0,.52,0,.69-.17v-.86c-.17,0-.52.17-.69.17h-.86c-.34,0-.69,0-.86-.34-.17-.17-.34-.52-.34-1.03h2.93v-.52c0-.69-.17-1.21-.52-1.55-.34-.34-.86-.52-1.38-.52l-.17.17ZM67.18,93.36c0-.34,0-.69.34-.86.17-.17.34-.34.69-.34s.52,0,.69.34c0,.17.17.52.17.69h-1.89v.17ZM64.59,93.19c-.17,0-.52-.34-.86-.52-.34,0-.52-.17-.69-.34-.17,0-.34-.17-.34-.34v-.34c0-.17,0-.34.17-.52,0,0,.34-.17.69-.17h.69c.17,0,.52,0,.69.17l.34-.86c-.34,0-.52-.17-.86-.34h-.86c-.52,0-1.03,0-1.38.52s-.52.69-.52,1.21,0,.69.17.86c0,.17.34.34.52.52.17,0,.52.34.69.34.34.17.69.34.86.52.17,0,.34.34.34.52s0,.34-.17.52c0,0-.34.17-.86.17h-.86c-.34,0-.52-.17-.86-.34v1.03c.52.17,1.03.34,1.72.34s1.21,0,1.55-.52c.34-.34.52-.69.52-1.21s0-.52-.17-.86c0-.17-.34-.34-.52-.52v.17ZM73.72,91.47c-.34,0-.52,0-.86.17-.17,0-.34.34-.52.69h0v-.86h-1.03v4.48h1.03v-2.41c0-.34,0-.52.17-.69,0-.17.34-.34.52-.34h.69c.34,0,0,0,.17,0h.17v-1.03h-.34ZM77.16,94.22v1.03h0v-1.03l-.86-2.58h-1.03l1.72,4.48h1.21l1.72-4.48h-1.03l-.86,2.58h-.86Z"/>
        </g>
      </g>
    </g>
  </g>
</svg>